 <svg xmlns="http://www.w3.org/2000/svg" width="12" height="7" viewBox="0 0 12 7" fill="none">
            <path d="M0.141213 0.15582C0.233532 0.0559252 0.357464 0 0.486516 0C0.615568 0 0.7395 0.0559252 0.83182 0.15582L6 5.7368L11.1671 0.15582C11.2595 0.0559252 11.3834 0 11.5125 0C11.6415 0 11.7654 0.0559252 11.8578 0.15582C11.9028 0.204376 11.9386 0.26243 11.963 0.326556C11.9874 0.390682 12 0.45958 12 0.529183C12 0.598787 11.9874 0.667685 11.963 0.731811C11.9386 0.795937 11.9028 0.853991 11.8578 0.902547L6.36081 6.83742C6.26428 6.94166 6.13481 7 6 7C5.86519 7 5.73572 6.94166 5.63919 6.83742L0.142247 0.902547C0.0972295 0.853991 0.0614494 0.795937 0.0370182 0.731811C0.012587 0.667685 0 0.598787 0 0.529183C0 0.45958 0.012587 0.390682 0.0370182 0.326556C0.0614494 0.26243 0.0961955 0.204376 0.141213 0.15582Z" fill="white" />
        </svg>